<svg xmlns="http://www.w3.org/2000/svg" width="45" height="45"><path d="M0 0 C2.31 0 4.62 0 7 0 C7.495 1.98 7.495 1.98 8 4 C9.32 4 10.64 4 12 4 C12.66 4.66 13.32 5.32 14 6 C13.625 8.125 13.625 8.125 13 10 C13.66 10.33 14.32 10.66 15 11 C15 13.31 15 15.62 15 18 C13.68 18.33 12.36 18.66 11 19 C11.495 20.98 11.495 20.98 12 23 C9 25 9 25 6 25 C6 24.34 6 23.68 6 23 C5.34 23 4.68 23 4 23 C3.896875 23.94875 3.79375 24.8975 3.6875 25.875 C3 29 3 29 0 31 C-0.76728039 33.81103257 -0.76728039 33.81103257 -1.125 37 C-1.92715232 42.85430464 -1.92715232 42.85430464 -3 45 C-5.64 45 -8.28 45 -11 45 C-11.50403768 43.70990357 -12.00309926 42.41786211 -12.5 41.125 C-12.7784375 40.40570313 -13.056875 39.68640625 -13.34375 38.9453125 C-14 37 -14 37 -14 35 C-14.556875 35.350625 -15.11375 35.70125 -15.6875 36.0625 C-18.62571558 37.25366848 -19.98431951 36.88263819 -23 36 C-23.886875 35.7525 -24.77375 35.505 -25.6875 35.25 C-28 34 -28 34 -29.3125 31.6875 C-30.52177815 26.9603218 -30.40687142 23.33236856 -28 19 C-26.67696283 18.6278958 -25.34262065 18.29369827 -24 18 C-22.71563266 16.0162233 -22.71563266 16.0162233 -22 14 C-24.31 14.33 -26.62 14.66 -29 15 C-29.33 14.01 -29.66 13.02 -30 12 C-29.40832031 11.99742188 -28.81664063 11.99484375 -28.20703125 11.9921875 C-23.46408475 11.85867371 -23.46408475 11.85867371 -19.4296875 9.66796875 C-18.24813926 8.14087338 -17.12226793 6.5711751 -16 5 C-13.06810085 3.19283802 -10.17394723 2.47287294 -6.8125 1.8125 C-5.93207031 1.63332031 -5.05164063 1.45414062 -4.14453125 1.26953125 C-3.43683594 1.18058594 -2.72914062 1.09164062 -2 1 C-1.67 1.33 -1.34 1.66 -1 2 C-0.67 1.34 -0.34 0.68 0 0 Z M3 3 C2.67 3.99 2.34 4.98 2 6 C0.02 5.34 -1.96 4.68 -4 4 C-4 4.99 -4 5.98 -4 7 C-3.34 7.66 -2.68 8.32 -2 9 C0.31 8.34 2.62 7.68 5 7 C5 5.68 5 4.36 5 3 C4.34 3 3.68 3 3 3 Z M-17.8125 9.75 C-19.49161119 12.93147384 -19.87801023 15.4013018 -20 19 C-18.71180865 23.15083879 -17.45385391 25.54614609 -14.375 28.625 C-11.81502728 31.18497272 -11.30332849 32.46116759 -11 36 C-10.01 35.67 -9.02 35.34 -8 35 C-8.33 34.34 -8.66 33.68 -9 33 C-8.01 33 -7.02 33 -6 33 C-6 33.99 -6 34.98 -6 36 C-5.01 36 -4.02 36 -3 36 C-2.9175 34.906875 -2.835 33.81375 -2.75 32.6875 C-2 29 -2 29 0.0625 27.0625 C1.0215625 26.5365625 1.0215625 26.5365625 2 26 C0.35 26 -1.3 26 -3 26 C-3.33 24.68 -3.66 23.36 -4 22 C-4.61875 21.9175 -5.2375 21.835 -5.875 21.75 C-8 21 -8 21 -9.25 18.9375 C-9.4975 18.298125 -9.745 17.65875 -10 17 C-9.01 16.67 -8.02 16.34 -7 16 C-8.32 15.67 -9.64 15.34 -11 15 C-11 12.69 -11 10.38 -11 8 C-9.35 8 -7.7 8 -6 8 C-6.66 7.01 -7.32 6.02 -8 5 C-11.8633826 5 -15.09576795 7.12694837 -17.8125 9.75 Z M9 6 C8.01 7.485 8.01 7.485 7 9 C7.99 10.485 7.99 10.485 9 12 C9.66 10.02 10.32 8.04 11 6 C10.34 6 9.68 6 9 6 Z M-0.8125 10.1875 C-2.25290328 11.95054109 -2.25290328 11.95054109 -1.6875 14.1875 C-1.460625 14.785625 -1.23375 15.38375 -1 16 C1.39719432 16.67958603 1.39719432 16.67958603 4 17 C4.66 16.34 5.32 15.68 6 15 C5.67958603 12.39719432 5.67958603 12.39719432 5 10 C1.99251085 8.84137694 1.99251085 8.84137694 -0.8125 10.1875 Z M-8 11 C-8 11.66 -8 12.32 -8 13 C-7.01 13.495 -7.01 13.495 -6 14 C-5.375 16.0625 -5.375 16.0625 -5 18 C-5.66 18 -6.32 18 -7 18 C-7 18.66 -7 19.32 -7 20 C-5.02 19.67 -3.04 19.34 -1 19 C-1.66 18.01 -2.32 17.02 -3 16 C-3.39013716 14.0103005 -3.73202649 12.00980131 -4 10 C-5.36893239 9.94729537 -5.36893239 9.94729537 -8 11 Z M9 12 C8.67 13.32 8.34 14.64 8 16 C9.65 16 11.3 16 13 16 C13 15.34 13 14.68 13 14 C11.68 13.34 10.36 12.68 9 12 Z M3 20 C4.98 20.66 6.96 21.32 9 22 C8.67 20.35 8.34 18.7 8 17 C6.03177114 17 4.49471455 18.84280164 3 20 Z M-1 19 C-0.67 20.65 -0.34 22.3 0 24 C0.66 24 1.32 24 2 24 C2.33 22.68 2.66 21.36 3 20 C1.68 19.67 0.36 19.34 -1 19 Z M-26 21 C-25.01 22.485 -25.01 22.485 -24 24 C-24 23.01 -24 22.02 -24 21 C-24.66 21 -25.32 21 -26 21 Z M-22 24 C-22 25.32 -22 26.64 -22 28 C-20.68 28 -19.36 28 -18 28 C-18.66 26.68 -19.32 25.36 -20 24 C-20.66 24 -21.32 24 -22 24 Z M-26 25 C-26.66 25.66 -27.32 26.32 -28 27 C-27.01 27.33 -26.02 27.66 -25 28 C-25.33 27.01 -25.66 26.02 -26 25 Z M-25 29 C-25.33 29.99 -25.66 30.98 -26 32 C-25.01 31.67 -24.02 31.34 -23 31 C-23.66 30.34 -24.32 29.68 -25 29 Z M-17 29 C-17.33 29.66 -17.66 30.32 -18 31 C-16.68 31.33 -15.36 31.66 -14 32 C-14.33 31.01 -14.66 30.02 -15 29 C-15.66 29 -16.32 29 -17 29 Z M-22 31 C-21.01 32.485 -21.01 32.485 -20 34 C-19.34 33.01 -18.68 32.02 -18 31 C-19.32 31 -20.64 31 -22 31 Z M-10 42 C-10 42.33 -10 42.66 -10 43 C-8.35 43 -6.7 43 -5 43 C-5 42.67 -5 42.34 -5 42 C-6.65 42 -8.3 42 -10 42 Z " fill="#2981E9" transform="translate(30,0)"></path><path d="M0 0 C-0.61277612 2.96175123 -1.25372522 4.38058783 -3 7 C-3.15483439 10.50260082 -3.15483439 10.50260082 -2 14 C0.86875539 16.3015039 0.86875539 16.3015039 4 18 C6 21 6 21 6 24 C5.01 24 4.02 24 3 24 C2.67 23.01 2.34 22.02 2 21 C0.01310269 19.64721885 -1.98745218 18.31431695 -4 17 C-6.67953508 12.98069738 -6.69495566 9.72404381 -6 5 C-2.93877551 0 -2.93877551 0 0 0 Z " fill="#2981E9" transform="translate(18,8)"></path><path d="M0 0 C2.31 0 4.62 0 7 0 C7 0.99 7 1.98 7 3 C4.69 3 2.38 3 0 3 C0 2.01 0 1.02 0 0 Z " fill="#2981E9" transform="translate(36,27)"></path><path d="M0 0 C0.99 0 1.98 0 3 0 C3.33 2.31 3.66 4.62 4 7 C3.01 7 2.02 7 1 7 C0.67 4.69 0.34 2.38 0 0 Z " fill="#2981E9" transform="translate(8,0)"></path><path d="M0 0 C2.03833424 1.2739589 4.03852126 2.61061923 6 4 C6 4.66 6 5.32 6 6 C3.03824877 5.38722388 1.61941217 4.74627478 -1 3 C-0.67 2.01 -0.34 1.02 0 0 Z " fill="#2981E9" transform="translate(36,31)"></path><path d="M0 0 C4.75 1.875 4.75 1.875 7 3 C7 3.66 7 4.32 7 5 C4.625 4.75 4.625 4.75 2 4 C0.6875 1.9375 0.6875 1.9375 0 0 Z " fill="#2981E9" transform="translate(2,4)"></path><path d="M0 0 C0.66 0 1.32 0 2 0 C2 2.31 2 4.62 2 7 C1.34 7 0.68 7 0 7 C0 4.69 0 2.38 0 0 Z " fill="#2981E9" transform="translate(32,33)"></path></svg>